<svg xmlns="http://www.w3.org/2000/svg" viewBox="0 0 256 256" width="256" height="256">
  <!-- Background circle -->
  <circle cx="128" cy="128" r="128" fill="#01B4E4"/>

  <!-- Film strip top bar -->
  <rect x="44" y="64" width="168" height="128" rx="12" fill="#0D253F"/>

  <!-- Film sprocket holes - top row -->
  <rect x="56" y="72" width="14" height="10" rx="3" fill="#01B4E4"/>
  <rect x="80" y="72" width="14" height="10" rx="3" fill="#01B4E4"/>
  <rect x="104" y="72" width="14" height="10" rx="3" fill="#01B4E4"/>
  <rect x="128" y="72" width="14" height="10" rx="3" fill="#01B4E4"/>
  <rect x="152" y="72" width="14" height="10" rx="3" fill="#01B4E4"/>
  <rect x="176" y="72" width="14" height="10" rx="3" fill="#01B4E4"/>

  <!-- Film sprocket holes - bottom row -->
  <rect x="56" y="174" width="14" height="10" rx="3" fill="#01B4E4"/>
  <rect x="80" y="174" width="14" height="10" rx="3" fill="#01B4E4"/>
  <rect x="104" y="174" width="14" height="10" rx="3" fill="#01B4E4"/>
  <rect x="128" y="174" width="14" height="10" rx="3" fill="#01B4E4"/>
  <rect x="152" y="174" width="14" height="10" rx="3" fill="#01B4E4"/>
  <rect x="176" y="174" width="14" height="10" rx="3" fill="#01B4E4"/>

  <!-- Screen area -->
  <rect x="56" y="90" width="144" height="76" rx="6" fill="#90CEA1"/>

  <!-- Play triangle -->
  <polygon points="108,106 108,150 152,128" fill="#0D253F"/>

  <!-- Checkmark badge (bottom-right) -->
  <circle cx="192" cy="184" r="28" fill="#90CEA1"/>
  <polyline points="179,184 189,194 207,174" stroke="#0D253F" stroke-width="7" stroke-linecap="round" stroke-linejoin="round" fill="none"/>
</svg>
